<?xml version="1.0" encoding="UTF-8"?>
<svg xmlns="http://www.w3.org/2000/svg" xmlns:xlink="http://www.w3.org/1999/xlink" width="96pt" height="96pt" viewBox="0 0 96 96" version="1.1">
<g id="surface1">
<path style=" stroke:none;fill-rule:nonzero;fill:#EEEEEE;fill-opacity:1;" d="M 67.398438 43 C 67.398438 57.601563 55.601563 69.398438 41 69.398438 C 26.398438 69.398438 14.601563 57.601563 14.601563 43 C 14.601563 28.398438 26.398438 16.601563 41 16.601563 C 55.601563 16.601563 67.398438 28.398438 67.398438 43 Z "/>
<path style=" stroke:none;fill-rule:nonzero;fill:#3F51B5;fill-opacity:1;" d="M 41 12 C 23.796875 12 10 25.796875 10 43 C 10 60.203125 23.796875 74 41 74 C 58.203125 74 72 60.203125 72 43 C 72 25.796875 58.203125 12 41 12 Z M 41 68 C 27.203125 68 16 56.796875 16 43 C 16 29.203125 27.203125 18 41 18 C 54.796875 18 66 29.203125 66 43 C 66 56.796875 54.796875 68 41 68 Z "/>
<path style=" stroke:none;fill-rule:nonzero;fill:#90A4AE;fill-opacity:1;" d="M 54.398438 56.398438 L 51.601563 53.601563 C 57.398438 47.796875 57.398438 38.203125 51.601563 32.398438 C 45.796875 26.601563 36.203125 26.601563 30.398438 32.398438 C 24.601563 38.203125 24.601563 47.796875 30.398438 53.601563 L 27.601563 56.398438 C 20.203125 49 20.203125 37 27.601563 29.601563 C 35 22.203125 47 22.203125 54.398438 29.601563 C 61.796875 37 61.796875 49 54.398438 56.398438 Z "/>
<path style=" stroke:none;fill-rule:nonzero;fill:#90CAF9;fill-opacity:1;" d="M 60 72.796875 C 60 66.601563 72 48 72 48 C 72 48 84 66.601563 84 72.796875 C 84 79 78.601563 84 72 84 C 65.398438 84 60 79 60 72.796875 Z "/>
<path style=" stroke:none;fill-rule:nonzero;fill:#E3F2FD;fill-opacity:1;" d="M 68 72.796875 C 68 70.398438 70 64 72 56 L 72 55.796875 C 72 55.796875 72 55.796875 72 55.601563 C 67.796875 62.796875 64 70.398438 64 72.796875 C 64 76.796875 67.601563 80 72 80 C 72.601563 80 73.398438 79.796875 74 79.796875 C 70.601563 79 68 76.203125 68 72.796875 Z "/>
<path style=" stroke:none;fill-rule:nonzero;fill:#263238;fill-opacity:1;" d="M 38.601563 38.796875 C 36.203125 40.203125 35.398438 43.203125 36.796875 45.601563 C 38.203125 48 41.203125 48.796875 43.601563 47.398438 C 46 46 46.796875 43 45.398438 40.601563 C 44 38.203125 40.796875 37.398438 38.601563 38.796875 "/>
<path style=" stroke:none;fill-rule:nonzero;fill:#263238;fill-opacity:1;" d="M 38 22 C 39 23.601563 40 25.203125 40.796875 27 C 41 28.796875 41.203125 30.601563 41.601563 32.203125 L 44.601563 53.203125 L 40.601563 53.796875 L 37.601563 32.796875 C 37.398438 31 37.203125 29.203125 36.796875 27.601563 C 37 25.796875 37.398438 23.796875 38 22 Z "/>
<path style=" stroke:none;fill-rule:nonzero;fill:#90CAF9;fill-opacity:1;" d="M 40 41.203125 C 39 41.796875 38.796875 43 39.398438 44 C 40 45 41.203125 45.203125 42.203125 44.796875 C 43.203125 44.398438 43.398438 43 42.796875 42 C 42.203125 41 41 40.796875 40 41.203125 "/>
</g>
</svg>
