<?xml version="1.0" encoding="UTF-8"?>
<svg xmlns="http://www.w3.org/2000/svg" xmlns:xlink="http://www.w3.org/1999/xlink" width="96pt" height="96pt" viewBox="0 0 96 96" version="1.1">
<g id="surface1">
<path style=" stroke:none;fill-rule:nonzero;fill:#BBDEFB;fill-opacity:1;" d="M 12 68 L 84 68 L 86 63.992188 L 86 26 L 82 30 L 14 30 L 10 26 L 10 63.992188 Z "/>
<path style=" stroke:none;fill-rule:nonzero;fill:#90CAF9;fill-opacity:1;" d="M 86 64 L 82 64 C 82 66.210938 80.203125 68 78 68 C 75.789063 68 74 66.210938 74 64 L 70 64 C 70 66.210938 68.203125 68 66 68 C 63.789063 68 62 66.210938 62 64 L 58 64 C 58 66.210938 56.203125 68 54 68 C 51.789063 68 50 66.210938 50 64 L 46 64 C 46 66.210938 44.203125 68 42 68 C 39.789063 68 38 66.210938 38 64 L 34 64 C 34 66.210938 32.203125 68 30 68 C 27.789063 68 26 66.210938 26 64 L 22 64 C 22 66.210938 20.203125 68 18 68 C 15.789063 68 14 66.210938 14 64 L 10 64 C 10 64 10 72 18 72 C 20.398438 72 22.53125 70.914063 24 69.234375 C 25.46875 70.914063 27.601563 72 30 72 C 32.398438 72 34.53125 70.914063 36 69.234375 C 37.46875 70.914063 39.601563 72 42 72 C 44.398438 72 46.53125 70.914063 48 69.234375 C 49.46875 70.914063 51.601563 72 54 72 C 56.398438 72 58.53125 70.914063 60 69.234375 C 61.46875 70.914063 63.601563 72 66 72 C 68.398438 72 70.53125 70.914063 72 69.234375 C 73.46875 70.914063 75.601563 72 78 72 C 86 72 86 64 86 64 Z "/>
<path style=" stroke:none;fill-rule:nonzero;fill:#90CAF9;fill-opacity:1;" d="M 86 46 L 82 46 C 82 48.210938 80.203125 50 78 50 C 75.789063 50 74 48.210938 74 46 L 70 46 C 70 48.210938 68.203125 50 66 50 C 63.789063 50 62 48.210938 62 46 L 58 46 C 58 48.210938 56.203125 50 54 50 C 51.789063 50 50 48.210938 50 46 L 46 46 C 46 48.210938 44.203125 50 42 50 C 39.789063 50 38 48.210938 38 46 L 34 46 C 34 48.210938 32.203125 50 30 50 C 27.789063 50 26 48.210938 26 46 L 22 46 C 22 48.210938 20.203125 50 18 50 C 15.789063 50 14 48.210938 14 46 L 10 46 C 10 46 10 54 18 54 C 20.398438 54 22.53125 52.914063 24 51.234375 C 25.46875 52.914063 27.601563 54 30 54 C 32.398438 54 34.53125 52.914063 36 51.234375 C 37.46875 52.914063 39.601563 54 42 54 C 44.398438 54 46.53125 52.914063 48 51.234375 C 49.46875 52.914063 51.601563 54 54 54 C 56.398438 54 58.53125 52.914063 60 51.234375 C 61.46875 52.914063 63.601563 54 66 54 C 68.398438 54 70.53125 52.914063 72 51.234375 C 73.46875 52.914063 75.601563 54 78 54 C 86 54 86 46 86 46 Z "/>
<path style=" stroke:none;fill-rule:nonzero;fill:#90CAF9;fill-opacity:1;" d="M 86 26 L 82 26 C 82 28.210938 80.203125 30 78 30 C 75.789063 30 74 28.210938 74 26 L 70 26 C 70 28.210938 68.203125 30 66 30 C 63.789063 30 62 28.210938 62 26 L 58 26 C 58 28.210938 56.203125 30 54 30 C 51.789063 30 50 28.210938 50 26 L 46 26 C 46 28.210938 44.203125 30 42 30 C 39.789063 30 38 28.210938 38 26 L 34 26 C 34 28.210938 32.203125 30 30 30 C 27.789063 30 26 28.210938 26 26 L 22 26 C 22 28.210938 20.203125 30 18 30 C 15.789063 30 14 28.210938 14 26 L 10 26 C 10 26 10 34 18 34 C 20.398438 34 22.53125 32.914063 24 31.234375 C 25.46875 32.914063 27.601563 34 30 34 C 32.398438 34 34.53125 32.914063 36 31.234375 C 37.46875 32.914063 39.601563 34 42 34 C 44.398438 34 46.53125 32.914063 48 31.234375 C 49.46875 32.914063 51.601563 34 54 34 C 56.398438 34 58.53125 32.914063 60 31.234375 C 61.46875 32.914063 63.601563 34 66 34 C 68.398438 34 70.53125 32.914063 72 31.234375 C 73.46875 32.914063 75.601563 34 78 34 C 86 34 86 26 86 26 Z "/>
<path style=" stroke:none;fill-rule:nonzero;fill:#1E88E5;fill-opacity:1;" d="M 66 28 C 66 33.523438 61.523438 38 56 38 C 50.476563 38 46 33.523438 46 28 C 46 22.476563 56 8 56 8 C 56 8 66 22.476563 66 28 Z "/>
<path style=" stroke:none;fill-rule:nonzero;fill:#1E88E5;fill-opacity:1;" d="M 46 78 C 46 83.523438 41.523438 88 36 88 C 30.476563 88 26 83.523438 26 78 C 26 72.476563 36 58 36 58 C 36 58 46 72.476563 46 78 Z "/>
</g>
</svg>
