<?xml version="1.0" encoding="UTF-8"?>
<svg xmlns="http://www.w3.org/2000/svg" xmlns:xlink="http://www.w3.org/1999/xlink" width="96pt" height="96pt" viewBox="0 0 96 96" version="1.1">
<g id="surface1">
<path style=" stroke:none;fill-rule:nonzero;fill:#FF3D00;fill-opacity:1;" d="M 84 14 L 88 14 L 88 34 L 84 34 Z "/>
<path style=" stroke:none;fill-rule:nonzero;fill:#FF3D00;fill-opacity:1;" d="M 76 14 L 86 14 L 86 18 L 76 18 Z "/>
<path style=" stroke:none;fill-rule:nonzero;fill:#FF3D00;fill-opacity:1;" d="M 80 30 L 86 30 L 86 34 L 80 34 Z "/>
<path style=" stroke:none;fill-rule:nonzero;fill:#FF3D00;fill-opacity:1;" d="M 80 22 L 86 22 L 86 26 L 80 26 Z "/>
<path style=" stroke:none;fill-rule:nonzero;fill:#B0BEC5;fill-opacity:1;" d="M 84 34 L 88 34 L 88 82 L 84 82 Z "/>
<path style=" stroke:none;fill-rule:nonzero;fill:#B0BEC5;fill-opacity:1;" d="M 76 78 L 86 78 L 86 82 L 76 82 Z "/>
<path style=" stroke:none;fill-rule:nonzero;fill:#B0BEC5;fill-opacity:1;" d="M 76 46 L 86 46 L 86 50 L 76 50 Z "/>
<path style=" stroke:none;fill-rule:nonzero;fill:#B0BEC5;fill-opacity:1;" d="M 80 38 L 86 38 L 86 42 L 80 42 Z "/>
<path style=" stroke:none;fill-rule:nonzero;fill:#B0BEC5;fill-opacity:1;" d="M 80 70 L 86 70 L 86 74 L 80 74 Z "/>
<path style=" stroke:none;fill-rule:nonzero;fill:#B0BEC5;fill-opacity:1;" d="M 80 62 L 86 62 L 86 66 L 80 66 Z "/>
<path style=" stroke:none;fill-rule:nonzero;fill:#B0BEC5;fill-opacity:1;" d="M 80 54 L 86 54 L 86 58 L 80 58 Z "/>
<path style=" stroke:none;fill-rule:nonzero;fill:#00BCD4;fill-opacity:1;" d="M 18 78 L 14 78 L 14 75.601563 C 14 66 13.796875 56.203125 20.203125 45 C 28 31.398438 28 27.796875 28 14 L 32 14 C 32 28.203125 32 32.601563 23.796875 47 C 17.796875 57.203125 18 66.601563 18 75.601563 Z "/>
<path style=" stroke:none;fill-rule:nonzero;fill:#00BCD4;fill-opacity:1;" d="M 36 78 L 32 78 L 32 75.601563 C 32 66 31.796875 56.203125 38.203125 45 C 46 31.398438 46 27.796875 46 14 L 50 14 C 50 28.203125 50 32.601563 41.796875 47 C 36 57.203125 36 66.601563 36 75.601563 Z "/>
<path style=" stroke:none;fill-rule:nonzero;fill:#00BCD4;fill-opacity:1;" d="M 54 78 L 50 78 L 50 75.601563 C 50 66 49.796875 56.203125 56.203125 45 C 64 31.398438 64 27.796875 64 14 L 68 14 C 68 28.203125 68 32.601563 59.796875 47 C 54 57.203125 54 66.601563 54 75.601563 Z "/>
<path style=" stroke:none;fill-rule:nonzero;fill:#00BCD4;fill-opacity:1;" d="M 8 72 L 16 82 L 24 72 Z "/>
<path style=" stroke:none;fill-rule:nonzero;fill:#00BCD4;fill-opacity:1;" d="M 26 72 L 34 82 L 42 72 Z "/>
<path style=" stroke:none;fill-rule:nonzero;fill:#00BCD4;fill-opacity:1;" d="M 44 72 L 52 82 L 60 72 Z "/>
</g>
</svg>
