<?xml version="1.0" encoding="UTF-8"?>
<svg xmlns="http://www.w3.org/2000/svg" xmlns:xlink="http://www.w3.org/1999/xlink" width="96pt" height="96pt" viewBox="0 0 96 96" version="1.1">
<g id="surface1">
<path style=" stroke:none;fill-rule:nonzero;fill:#BBDEFB;fill-opacity:1;" d="M 76 31 C 76 40.398438 68.398438 48 59 48 C 49.601563 48 42 40.398438 42 31 C 42 21.601563 49.601563 14 59 14 C 68.398438 14 76 21.601563 76 31 Z "/>
<path style=" stroke:none;fill-rule:nonzero;fill:#BBDEFB;fill-opacity:1;" d="M 88 47.796875 C 88 55.601563 81.796875 61.796875 74 61.796875 C 66.203125 61.796875 60 55.601563 60 47.796875 C 60 40 66.203125 33.796875 74 33.796875 C 81.796875 33.796875 88 40 88 47.796875 Z "/>
<path style=" stroke:none;fill-rule:nonzero;fill:#BBDEFB;fill-opacity:1;" d="M 36 48 C 36 55.796875 29.796875 62 22 62 C 14.203125 62 8 55.796875 8 48 C 8 40.203125 14.203125 34 22 34 C 29.796875 34 36 40.203125 36 48 Z "/>
<path style=" stroke:none;fill-rule:nonzero;fill:#BBDEFB;fill-opacity:1;" d="M 48 33 C 48 40.203125 42.203125 46 35 46 C 27.796875 46 22 40.203125 22 33 C 22 25.796875 27.796875 20 35 20 C 42.203125 20 48 25.796875 48 33 Z "/>
<path style=" stroke:none;fill-rule:nonzero;fill:#BBDEFB;fill-opacity:1;" d="M 64 43.796875 C 64 51.601563 57.796875 57.796875 50 57.796875 C 42.203125 57.796875 36 51.601563 36 43.796875 C 36 36 42.203125 29.796875 50 29.796875 C 57.796875 29.796875 64 36 64 43.796875 Z "/>
<path style=" stroke:none;fill-rule:nonzero;fill:#BBDEFB;fill-opacity:1;" d="M 14 54 C 14 58.398438 17.601563 62 22 62 L 72 62 C 76.398438 62 80 58.398438 80 54 L 80 52 C 80 47.601563 76.398438 44 72 44 L 22 44 C 17.601563 44 14 47.601563 14 52 Z "/>
<path style=" stroke:none;fill-rule:nonzero;fill:#2196F3;fill-opacity:1;" d="M 63.796875 82 C 58.796875 82 54.601563 79 52.796875 74.203125 C 52.398438 73.203125 53 72 54 71.601563 C 55 71.203125 56.203125 71.796875 56.601563 72.796875 C 57.796875 76.203125 60.601563 78.203125 64 78 C 68.601563 77.796875 72 74.398438 72 70 C 72 65.601563 68.398438 62 64 62 L 24 62 C 22.796875 62 22 61.203125 22 60 C 22 58.796875 22.796875 58 24 58 L 64 58 C 70.601563 58 76 63.398438 76 70 C 76 76.398438 70.796875 81.796875 64 82 C 64 82 63.796875 82 63.796875 82 Z "/>
<path style=" stroke:none;fill-rule:nonzero;fill:#2196F3;fill-opacity:1;" d="M 50 54 L 28 54 C 26.796875 54 26 53.203125 26 52 C 26 50.796875 26.796875 50 28 50 L 50 50 C 53.203125 50 56 47.203125 56 44 C 56 40.796875 53.203125 38 50 38 C 47.601563 38 45.398438 39.601563 44.398438 41.796875 C 44 42.796875 42.796875 43.398438 41.796875 43 C 40.796875 42.601563 40.203125 41.398438 40.601563 40.398438 C 42.203125 36.601563 45.796875 34 50 34 C 55.601563 34 60 38.398438 60 44 C 60 49.601563 55.601563 54 50 54 Z "/>
<path style=" stroke:none;fill-rule:nonzero;fill:#2196F3;fill-opacity:1;" d="M 36 82 C 33 82 30.203125 80.398438 29 77.601563 C 28.601563 76.601563 29 75.398438 29.796875 75 C 30.796875 74.601563 32 75 32.398438 75.796875 C 33 77 34.398438 77.796875 35.796875 77.796875 C 38 77.796875 39.796875 76 39.796875 73.796875 C 39.796875 71.601563 38 69.796875 35.796875 69.796875 L 19.796875 69.796875 C 18.601563 69.796875 17.796875 69 17.796875 67.796875 C 17.796875 66.601563 18.601563 65.796875 19.796875 65.796875 L 35.796875 65.796875 C 40.203125 65.796875 43.796875 69.398438 43.796875 73.796875 C 43.796875 78.203125 40.398438 82 36 82 Z "/>
</g>
</svg>
